<?xml version="1.0" encoding="UTF-8"?>
<svg width="219px" height="220px" viewBox="0 0 219 220" version="1.1" xmlns="http://www.w3.org/2000/svg"
     xmlns:xlink="http://www.w3.org/1999/xlink">
    <!-- Generator: Sketch 51.3 (57544) - http://www.bohemiancoding.com/sketch -->
    <title>300ppisclogo</title>
    <desc>Created with Sketch.</desc>
    <defs></defs>
    <g id="Page-1" stroke="none" stroke-width="1" fill="none" fill-rule="evenodd">
        <g id="Moo-Card(front)" transform="translate(-239.000000, -112.000000)" fill-rule="nonzero">
            <g id="sclogo" transform="translate(239.000000, 112.278276)">
                <circle id="Oval" fill="#000000" cx="109.757111" cy="109.812133" r="109.198498"></circle>
                <path d="M103.17482,136.809995 C105.912752,141.94656 109.500058,146.733176 113.936749,151.169867 C125.574001,162.657924 139.623036,168.401865 156.084278,168.401865 C167.025284,168.401865 177.468814,165.592059 187.415183,159.972359 L187.415183,139.010491 C184.580468,141.39762 181.882556,143.436595 179.321366,145.127478 C176.760176,146.81836 174.286054,148.161101 171.898925,149.155737 C167.621986,151.145011 162.425087,152.139633 156.30807,152.139633 C144.47189,152.139633 134.475939,147.987086 126.319916,139.681868 C118.163894,131.37665 114.085943,121.181774 114.085943,109.096936 C114.085943,96.8629018 118.163894,86.5188329 126.319916,78.0644194 C134.426208,69.5602739 144.397293,65.3082648 156.233473,65.3082648 C166.975551,65.3082648 177.36935,69.5105427 187.415183,77.9152247 L187.415183,57.3263435 C177.767206,51.706645 167.771254,48.8968379 157.427031,48.8968379 C138.479198,48.8968379 123.037691,55.9337885 111.102048,70.0079008 C101.404338,81.4959575 96.5555562,94.5752364 96.5555562,109.246131 C96.5555562,109.897052 96.5647251,110.544193 96.5830646,111.187557 C92.2401518,105.951665 85.5328337,101.500098 76.4609223,97.8327293 L64.9729234,93.1330931 C56.6179734,89.7015961 52.440561,85.176066 52.440561,79.5563674 C52.440561,75.478356 54.0319562,72.0966412 57.2147943,69.4111216 C60.3976325,66.6758701 64.4009859,65.3082648 69.224975,65.3082648 C73.1537908,65.3082648 76.3614467,66.1039625 78.848039,67.6953815 C81.2351673,69.0878732 83.7465878,72.0717391 86.3823762,76.6470689 L100.481283,68.2921606 C93.0215067,55.3618808 82.6525723,48.8968379 69.3741698,48.8968379 C59.5272644,48.8968379 51.2967673,51.8309727 44.6824318,57.6993305 C38.0680965,63.5179564 34.7609783,70.7538315 34.7609783,79.4071726 C34.7609783,92.2379889 42.6433576,101.985284 58.4083526,108.649351 L69.5233645,113.27439 C72.4078116,114.517686 74.8943665,115.823128 76.9831041,117.190753 C79.0718416,118.558379 80.7751315,120.025447 82.0930257,121.592 C83.4109199,123.158553 84.3806759,124.874275 85.0023241,126.73922 C85.6239723,128.604164 85.9347916,130.655572 85.9347916,132.893505 C85.9347916,138.463471 84.1444722,143.063599 80.5637787,146.694023 C76.9830862,150.324448 72.4824217,152.139633 67.0616505,152.139633 C60.1986558,152.139633 54.9768904,149.653078 51.3961975,144.679894 C49.4069236,142.093838 48.0144529,137.419114 47.2187433,130.655583 L29.613758,134.534648 C31.205177,145.276726 35.2085306,153.606686 41.6239387,159.524775 C48.1388105,165.442865 56.394173,168.401865 66.390274,168.401865 C76.9334252,168.401865 85.7606951,164.920688 92.8723496,157.95823 C98.765077,152.189996 102.199214,145.140636 103.17482,136.809995 Z"
                      id="SC" fill="#FFFFFF"></path>
            </g>
        </g>
    </g>
</svg>